<?xml version="1.0" standalone="no"?>
<!DOCTYPE svg PUBLIC "-//W3C//DTD SVG 20010904//EN"
 "http://www.w3.org/TR/2001/REC-SVG-20010904/DTD/svg10.dtd">
<svg version="1.0" xmlns="http://www.w3.org/2000/svg"
 width="2493.000000pt" height="1247.000000pt" viewBox="0 0 2493.000000 1247.000000"
 preserveAspectRatio="xMidYMid meet">
<metadata>
Created by potrace 1.15, written by Peter Selinger 2001-2017
</metadata>
<g transform="translate(0.000000,1247.000000) scale(0.100000,-0.100000)"
fill="#000000" stroke="none">
<path d="M46 12442 c-3 -5 443 -309 992 -675 548 -367 1359 -908 1802 -1204
443 -296 910 -608 1039 -693 129 -85 626 -417 1105 -736 479 -320 943 -630
1031 -688 88 -58 635 -422 1215 -809 580 -387 1060 -706 1065 -708 6 -2 234
-154 507 -336 274 -183 502 -333 508 -333 17 0 1872 3720 1858 3725 -14 5
-677 152 -718 159 -14 2 -32 7 -40 10 -8 3 -31 8 -50 11 -19 4 -55 11 -80 16
-25 5 -52 11 -60 13 -8 1 -25 6 -36 10 -12 3 -35 9 -50 11 -16 2 -43 8 -61 14
-17 5 -34 7 -36 4 -3 -2 -14 0 -25 6 -10 6 -34 12 -53 15 -19 2 -45 7 -59 11
-23 6 -48 11 -95 19 -11 2 -20 4 -20 6 0 1 -11 4 -25 6 -47 8 -65 11 -65 14 0
1 -11 4 -25 6 -47 8 -65 11 -65 14 0 1 -11 4 -25 6 -47 8 -65 11 -65 14 0 2
-24 6 -85 15 -25 4 -50 11 -56 16 -6 5 -14 6 -17 3 -3 -3 -12 -2 -19 2 -7 5
-25 9 -40 10 -15 1 -35 5 -45 9 -10 5 -30 9 -45 10 -15 2 -35 6 -45 10 -10 5
-30 9 -45 10 -15 2 -35 6 -45 10 -10 4 -33 9 -51 11 -18 2 -38 6 -44 10 -6 4
-26 8 -45 10 -18 2 -39 6 -45 10 -6 4 -26 8 -45 10 -18 2 -39 6 -45 10 -6 4
-26 8 -45 10 -18 2 -39 6 -45 10 -6 4 -29 9 -52 11 -23 2 -42 7 -44 12 -2 5
-11 7 -21 4 -10 -3 -22 0 -25 5 -3 6 -15 8 -26 5 -11 -3 -20 -1 -20 5 0 6 -8
8 -19 5 -10 -3 -22 0 -25 5 -3 6 -15 8 -26 5 -11 -3 -20 -1 -20 5 0 6 -8 8
-19 5 -10 -3 -22 0 -25 5 -3 6 -15 8 -26 5 -11 -3 -20 -1 -20 5 0 6 -8 8 -19
5 -10 -3 -22 0 -25 5 -3 6 -15 8 -26 5 -11 -3 -20 0 -20 6 0 5 -7 8 -15 5 -8
-3 -19 -2 -26 2 -7 4 -27 8 -46 10 -18 2 -39 6 -45 10 -7 4 -21 8 -32 9 -32 2
-280 58 -286 64 -3 3 -23 7 -45 9 -22 2 -41 7 -43 12 -2 4 -12 6 -22 3 -11 -3
-20 -1 -20 4 0 6 -11 8 -25 5 -14 -2 -25 0 -25 6 0 6 -9 8 -20 5 -11 -3 -20
-1 -20 4 0 6 -11 8 -25 5 -14 -2 -25 0 -25 6 0 6 -9 8 -20 5 -11 -3 -20 -1
-20 4 0 6 -11 8 -25 5 -14 -2 -25 0 -25 6 0 6 -9 8 -20 5 -11 -3 -20 -1 -20 4
0 6 -11 8 -25 5 -14 -2 -25 0 -25 6 0 6 -9 8 -20 5 -11 -3 -20 -1 -20 4 0 6
-11 8 -25 5 -14 -2 -25 0 -25 6 0 6 -9 8 -20 5 -11 -3 -20 -1 -20 4 0 6 -11 8
-25 5 -14 -2 -25 0 -25 4 0 5 -19 10 -43 11 -23 2 -43 7 -45 12 -2 5 -11 7
-21 4 -10 -3 -22 0 -25 5 -3 6 -15 8 -26 5 -11 -3 -20 -1 -20 5 0 6 -9 8 -20
5 -12 -3 -20 0 -20 7 0 7 -7 10 -15 6 -16 -6 -156 22 -165 33 -3 3 -23 7 -45
8 -22 2 -42 8 -43 13 -2 6 -8 8 -13 5 -10 -7 -169 26 -169 34 0 3 -19 7 -41 8
-23 0 -44 5 -48 10 -3 4 -24 9 -46 10 -22 2 -41 7 -43 12 -1 4 -15 6 -30 4
-22 -4 -24 -2 -12 7 12 9 8 10 -17 5 -22 -4 -33 -3 -33 5 0 6 -4 8 -10 5 -5
-3 -445 91 -977 209 -533 118 -983 218 -1002 221 -19 3 -37 7 -40 9 -3 2 -22
7 -41 10 -19 3 -46 8 -60 11 -14 3 -34 8 -45 10 -11 3 -31 7 -45 10 -14 4 -34
8 -45 10 -11 3 -31 7 -45 11 -14 3 -34 7 -45 9 -11 2 -31 7 -45 10 -14 4 -34
8 -45 10 -11 2 -31 7 -45 10 -14 4 -34 8 -45 10 -11 2 -31 7 -45 10 -14 4 -43
9 -65 12 -22 2 -44 8 -50 12 -5 4 -25 8 -44 10 -19 1 -39 5 -45 10 -6 4 -26 8
-45 9 -19 2 -39 5 -44 9 -6 4 -25 8 -42 10 -16 2 -37 6 -45 9 -8 4 -28 8 -45
10 -16 2 -37 7 -45 10 -18 8 -49 14 -72 15 -10 0 -20 4 -23 9 -3 4 -14 6 -24
3 -10 -3 -22 0 -25 6 -4 5 -13 8 -20 5 -8 -3 -17 -1 -20 4 -3 6 -15 8 -25 5
-10 -3 -22 0 -25 6 -4 5 -13 8 -20 5 -8 -3 -17 -1 -20 4 -3 6 -15 8 -25 5 -10
-3 -22 0 -25 6 -4 5 -13 8 -20 5 -8 -3 -17 -1 -20 4 -3 6 -15 8 -25 5 -10 -3
-22 0 -25 6 -4 5 -13 8 -20 5 -8 -3 -17 -1 -20 4 -3 6 -15 8 -25 5 -10 -3 -22
0 -25 6 -4 5 -13 8 -20 5 -8 -3 -17 -1 -20 5 -4 6 -13 8 -21 5 -8 -3 -20 -2
-27 2 -6 4 -26 9 -43 11 -16 2 -37 6 -45 10 -8 3 -19 7 -25 7 -67 9 -115 19
-115 25 0 4 -19 7 -42 8 -23 1 -44 6 -47 10 -3 4 -24 9 -46 11 -22 2 -42 7
-45 10 -3 4 -23 8 -45 10 -22 2 -42 7 -45 10 -3 4 -23 8 -45 10 -22 2 -42 7
-45 10 -3 4 -23 8 -45 10 -22 2 -42 7 -45 10 -3 4 -23 8 -45 10 -22 2 -42 7
-45 10 -3 4 -23 8 -45 10 -22 2 -42 7 -45 10 -3 4 -23 8 -45 10 -22 2 -41 7
-43 12 -2 4 -11 6 -21 3 -10 -3 -22 0 -25 5 -3 6 -15 8 -26 5 -11 -3 -20 -1
-20 5 0 6 -8 8 -19 5 -10 -3 -22 0 -25 5 -3 6 -15 8 -26 5 -11 -3 -20 -1 -20
5 0 6 -8 8 -19 5 -10 -3 -22 0 -25 5 -3 6 -15 8 -26 5 -11 -3 -20 -1 -20 5 0
6 -9 8 -20 5 -11 -3 -20 -1 -20 4 0 4 -19 9 -41 9 -23 1 -44 5 -48 10 -3 5
-24 10 -45 11 -22 2 -42 6 -45 10 -3 5 -24 9 -45 10 -22 2 -42 6 -45 10 -3 5
-24 9 -46 10 -22 2 -42 8 -43 13 -2 6 -8 8 -13 5 -11 -7 -129 17 -129 26 0 4
-9 5 -20 2 -11 -3 -20 -1 -20 4 0 6 -11 8 -25 5 -14 -2 -25 0 -25 4 0 5 -19
10 -43 11 -23 2 -43 7 -45 12 -2 5 -12 7 -22 4 -11 -3 -20 -1 -20 4 0 6 -11 8
-25 5 -14 -2 -25 0 -25 4 0 5 -19 10 -43 11 -23 2 -43 7 -45 12 -2 5 -12 7
-22 4 -11 -3 -20 -1 -20 4 0 6 -11 8 -25 5 -14 -2 -25 0 -25 6 0 6 -9 8 -20 5
-11 -3 -20 -1 -20 4 0 6 -11 8 -25 5 -14 -2 -25 0 -25 6 0 6 -9 8 -20 5 -11
-3 -20 -1 -20 4 0 6 -11 8 -25 5 -14 -2 -25 0 -25 4 0 5 -19 10 -43 11 -23 2
-43 7 -45 12 -2 6 -10 7 -18 4 -8 -3 -21 0 -28 6 -8 7 -17 8 -20 3z"/>
<path d="M24865 12439 c-4 -6 -16 -9 -26 -6 -11 3 -19 1 -19 -5 0 -6 -9 -8
-20 -5 -11 3 -23 1 -26 -5 -3 -5 -15 -8 -25 -5 -11 3 -19 1 -19 -5 0 -6 -11
-8 -25 -6 -14 3 -25 1 -25 -5 0 -5 -9 -7 -20 -4 -11 3 -20 1 -20 -5 0 -6 -11
-8 -25 -6 -14 3 -25 1 -25 -5 0 -5 -9 -7 -20 -4 -11 3 -20 1 -20 -5 0 -6 -11
-8 -25 -6 -14 3 -25 1 -25 -5 0 -5 -9 -7 -20 -4 -10 3 -20 1 -22 -4 -2 -5 -22
-10 -45 -12 -24 -1 -43 -6 -43 -11 0 -4 -11 -6 -25 -4 -14 3 -25 1 -25 -5 0
-5 -9 -7 -20 -4 -10 3 -20 1 -22 -4 -2 -5 -22 -10 -45 -12 -24 -1 -43 -6 -43
-11 0 -4 -11 -6 -25 -4 -14 3 -25 1 -25 -5 0 -5 -9 -7 -20 -4 -10 3 -20 1 -22
-4 -2 -5 -22 -10 -45 -12 -24 -1 -43 -6 -43 -11 0 -4 -11 -6 -25 -4 -14 3 -25
2 -25 -2 0 -9 -158 -42 -169 -35 -5 3 -11 1 -13 -5 -1 -5 -21 -11 -43 -13 -22
-1 -43 -6 -46 -10 -3 -4 -21 -9 -40 -11 -19 -2 -42 -7 -51 -11 -9 -4 -22 -4
-28 0 -5 3 -10 1 -10 -6 0 -6 -8 -9 -20 -6 -11 3 -23 1 -26 -5 -3 -5 -15 -8
-25 -5 -11 3 -19 1 -19 -5 0 -6 -9 -8 -20 -5 -11 3 -23 1 -26 -5 -3 -5 -15 -8
-25 -5 -11 3 -19 1 -19 -5 0 -6 -9 -8 -20 -5 -11 3 -23 1 -26 -5 -3 -5 -15 -8
-25 -5 -11 3 -19 1 -19 -5 0 -6 -9 -8 -20 -5 -11 3 -23 1 -26 -5 -3 -5 -15 -8
-25 -5 -10 3 -19 1 -21 -3 -2 -5 -21 -10 -43 -12 -22 -2 -42 -6 -45 -10 -3 -3
-23 -8 -45 -10 -22 -2 -42 -6 -45 -10 -3 -3 -23 -8 -45 -10 -22 -2 -42 -6 -45
-10 -3 -3 -23 -8 -45 -10 -22 -2 -42 -6 -45 -10 -3 -3 -23 -8 -45 -10 -22 -2
-42 -6 -45 -10 -3 -3 -23 -8 -45 -10 -22 -2 -42 -6 -45 -10 -3 -3 -23 -8 -45
-10 -22 -2 -43 -7 -46 -11 -3 -4 -24 -9 -47 -10 -23 -1 -42 -5 -42 -10 0 -4
-8 -7 -17 -6 -10 1 -25 -1 -33 -4 -8 -4 -28 -9 -45 -11 -16 -2 -38 -7 -47 -11
-9 -4 -21 -4 -27 -1 -5 4 -13 1 -16 -5 -4 -5 -13 -8 -21 -5 -7 3 -16 0 -20 -5
-3 -6 -15 -9 -25 -6 -10 3 -22 1 -25 -5 -3 -5 -12 -7 -20 -4 -7 3 -16 0 -20
-5 -3 -6 -15 -9 -25 -6 -10 3 -22 1 -25 -5 -3 -5 -12 -7 -20 -4 -7 3 -16 0
-20 -5 -3 -6 -15 -9 -25 -6 -10 3 -22 1 -25 -5 -3 -5 -12 -7 -20 -4 -7 3 -16
0 -20 -5 -3 -6 -15 -9 -25 -6 -10 3 -22 1 -25 -5 -3 -5 -12 -7 -20 -4 -7 3
-16 0 -20 -5 -3 -6 -15 -9 -25 -6 -10 3 -22 1 -25 -5 -3 -5 -12 -7 -20 -4 -7
3 -16 0 -20 -5 -3 -6 -15 -9 -25 -6 -10 3 -21 1 -24 -3 -3 -5 -13 -9 -23 -9
-23 -1 -54 -7 -72 -15 -8 -3 -28 -8 -45 -10 -16 -2 -37 -6 -45 -10 -8 -3 -29
-7 -45 -9 -17 -2 -36 -6 -42 -10 -5 -4 -25 -7 -44 -9 -19 -1 -39 -5 -44 -9 -6
-4 -28 -10 -50 -12 -22 -3 -51 -8 -65 -12 -14 -3 -34 -8 -45 -10 -11 -2 -31
-6 -45 -10 -14 -3 -34 -8 -45 -10 -11 -2 -31 -6 -45 -10 -14 -3 -34 -8 -45
-10 -11 -2 -31 -6 -45 -10 -14 -3 -34 -8 -45 -10 -11 -2 -31 -6 -45 -9 -14 -3
-35 -8 -47 -11 -13 -3 -33 -7 -45 -10 -13 -3 -39 -8 -58 -11 -19 -3 -38 -8
-41 -10 -3 -2 -21 -6 -40 -9 -19 -3 -469 -103 -1002 -221 -532 -118 -972 -212
-977 -209 -6 3 -10 1 -10 -5 0 -8 -11 -9 -32 -5 -26 5 -30 4 -18 -5 12 -9 10
-11 -12 -7 -16 2 -28 0 -28 -6 0 -5 -9 -7 -20 -4 -11 3 -20 1 -20 -5 0 -6 -11
-8 -25 -6 -13 3 -26 2 -27 -2 -4 -10 -246 -62 -257 -56 -5 4 -11 1 -13 -5 -2
-6 -23 -11 -46 -12 -23 -1 -42 -5 -42 -8 0 -6 -101 -30 -145 -34 -11 -1 -28
-6 -37 -10 -9 -4 -22 -4 -28 0 -5 3 -10 1 -10 -6 0 -6 -8 -9 -20 -6 -11 3 -23
1 -26 -5 -3 -5 -15 -8 -25 -5 -11 3 -19 1 -19 -5 0 -6 -9 -8 -20 -5 -11 3 -23
1 -26 -5 -3 -5 -15 -8 -25 -5 -11 3 -19 1 -19 -5 0 -6 -11 -8 -25 -6 -14 3
-25 1 -25 -5 0 -5 -9 -7 -20 -4 -10 3 -20 1 -22 -4 -2 -5 -22 -10 -45 -12 -24
-1 -43 -6 -43 -11 0 -4 -11 -6 -25 -4 -14 3 -25 1 -25 -5 0 -5 -9 -7 -20 -4
-10 3 -20 1 -22 -3 -2 -5 -21 -10 -43 -12 -22 -2 -42 -6 -45 -10 -3 -3 -23 -8
-45 -10 -22 -2 -42 -6 -45 -10 -3 -3 -23 -8 -45 -10 -22 -2 -42 -6 -45 -10 -3
-3 -23 -8 -45 -10 -22 -2 -42 -6 -45 -10 -3 -3 -23 -8 -45 -10 -22 -2 -42 -6
-45 -9 -5 -6 -250 -61 -285 -65 -11 -1 -28 -5 -37 -9 -9 -4 -22 -4 -28 0 -5 3
-10 1 -10 -6 0 -6 -8 -9 -20 -6 -11 3 -23 1 -26 -5 -3 -5 -15 -8 -25 -5 -11 3
-19 1 -19 -5 0 -6 -9 -8 -20 -5 -11 3 -23 1 -26 -5 -3 -5 -15 -8 -25 -5 -11 3
-19 1 -19 -5 0 -6 -9 -8 -20 -5 -11 3 -23 1 -26 -5 -3 -5 -15 -8 -25 -5 -11 3
-19 1 -19 -5 0 -6 -9 -8 -20 -5 -11 3 -23 1 -26 -5 -3 -5 -15 -8 -25 -5 -11 3
-19 1 -19 -5 0 -6 -9 -8 -20 -5 -11 3 -23 1 -26 -5 -3 -5 -15 -8 -25 -5 -10 3
-19 1 -21 -3 -2 -5 -21 -10 -43 -12 -22 -2 -42 -6 -45 -10 -4 -4 -24 -9 -46
-11 -23 -2 -46 -7 -52 -11 -6 -4 -27 -8 -45 -10 -19 -2 -39 -6 -45 -10 -6 -4
-26 -8 -44 -10 -18 -2 -41 -7 -51 -11 -10 -4 -30 -8 -45 -10 -15 -1 -35 -5
-45 -10 -10 -4 -30 -8 -45 -10 -15 -1 -35 -5 -45 -10 -10 -4 -30 -8 -45 -9
-15 -1 -33 -5 -39 -9 -7 -5 -17 -6 -22 -2 -5 3 -13 0 -16 -6 -4 -5 -14 -8 -22
-5 -9 4 -21 2 -27 -2 -6 -5 -18 -10 -26 -10 -26 -2 -65 -9 -65 -12 0 -3 -16
-6 -65 -14 -14 -2 -25 -5 -25 -6 0 -3 -18 -6 -65 -14 -14 -2 -25 -5 -25 -6 0
-3 -18 -6 -65 -14 -14 -2 -25 -5 -25 -6 0 -2 -9 -4 -20 -6 -47 -8 -72 -13 -95
-19 -14 -4 -40 -9 -59 -11 -19 -3 -43 -9 -53 -15 -11 -6 -22 -8 -25 -6 -2 3
-19 1 -36 -4 -18 -6 -47 -12 -66 -15 -18 -2 -41 -9 -51 -14 -9 -5 -19 -8 -21
-5 -2 2 -31 -3 -64 -12 -65 -16 -120 -28 -175 -38 -19 -3 -42 -8 -50 -11 -8
-3 -26 -8 -40 -10 -82 -15 -676 -148 -683 -154 -4 -3 414 -849 928 -1878 l936
-1872 552 367 c830 550 847 562 1772 1179 473 316 1321 882 1884 1257 563 375
1292 861 1620 1080 328 220 796 532 1041 695 1258 836 2423 1614 2443 1632 5
4 4 11 -1 14 -6 3 -14 1 -17 -5z"/>
<path d="M11875 11310 c-308 -615 -563 -1116 -567 -1114 -4 3 -5 -3 -1 -12 4
-12 3 -15 -5 -10 -8 5 -10 1 -5 -10 4 -12 3 -15 -5 -10 -8 5 -10 1 -5 -10 4
-12 3 -15 -5 -10 -8 5 -10 1 -5 -10 4 -12 3 -15 -5 -10 -8 5 -10 1 -5 -10 4
-12 3 -15 -5 -10 -8 5 -10 1 -5 -10 4 -12 3 -15 -5 -10 -8 5 -10 1 -5 -10 4
-12 3 -15 -5 -10 -8 5 -10 1 -5 -10 4 -12 3 -15 -5 -10 -8 5 -10 1 -5 -10 5
-13 3 -15 -7 -9 -9 5 -11 4 -6 -3 10 -16 -153 -334 -167 -325 -6 3 -7 1 -3 -5
8 -13 -245 -523 -256 -516 -4 3 -5 -3 -1 -12 5 -13 3 -15 -7 -9 -8 5 -11 4 -7
-2 7 -11 -270 -586 -285 -591 -4 -2 -6 -8 -2 -13 3 -5 0 -9 -6 -9 -6 0 -8 -4
-5 -10 3 -5 1 -10 -5 -10 -6 0 -8 -4 -5 -10 3 -5 1 -10 -5 -10 -6 0 -8 -4 -5
-10 3 -5 1 -10 -5 -10 -6 0 -8 -4 -5 -10 3 -5 1 -10 -5 -10 -6 0 -8 -4 -5 -10
3 -5 1 -10 -5 -10 -6 0 -8 -4 -5 -10 3 -5 1 -10 -5 -10 -6 0 -8 -4 -5 -10 3
-5 1 -10 -5 -10 -6 0 -8 -4 -5 -10 3 -5 1 -10 -5 -10 -6 0 -8 -4 -5 -10 3 -5
1 -10 -5 -10 -6 0 -8 -4 -5 -10 3 -5 1 -10 -5 -10 -6 0 -8 -4 -5 -10 3 -5 1
-10 -5 -10 -6 0 -8 -4 -5 -10 3 -5 1 -10 -5 -10 -6 0 -8 -4 -5 -10 3 -5 1 -10
-5 -10 -6 0 -8 -4 -5 -10 3 -5 1 -10 -5 -10 -6 0 -8 -4 -5 -10 3 -5 1 -10 -5
-10 -6 0 -8 -4 -5 -10 3 -5 1 -10 -5 -10 -6 0 -8 -4 -5 -10 3 -5 1 -10 -5 -10
-6 0 -8 -4 -5 -10 3 -5 1 -10 -5 -10 -6 0 -8 -4 -5 -10 3 -5 1 -10 -5 -10 -6
0 -8 -4 -5 -10 3 -5 1 -10 -5 -10 -6 0 -8 -4 -5 -10 3 -5 1 -10 -5 -10 -6 0
-8 -4 -5 -10 3 -5 1 -10 -5 -10 -6 0 -8 -4 -5 -10 3 -5 1 -10 -5 -10 -6 0 -8
-4 -5 -10 3 -5 1 -10 -5 -10 -6 0 -8 -4 -5 -10 3 -5 1 -10 -5 -10 -6 0 -8 -4
-5 -10 3 -5 1 -10 -5 -10 -6 0 -8 -4 -5 -10 3 -5 1 -10 -4 -10 -6 0 -10 -4 -8
-9 4 -14 -106 -230 -115 -225 -4 3 -5 -3 -1 -12 4 -12 3 -15 -5 -10 -8 5 -10
1 -5 -10 4 -12 3 -15 -5 -10 -8 5 -10 1 -5 -10 4 -12 3 -15 -5 -10 -8 5 -10 1
-5 -10 4 -12 3 -15 -5 -10 -8 5 -10 1 -5 -10 4 -12 3 -15 -5 -10 -8 5 -10 1
-5 -10 4 -12 3 -15 -5 -10 -8 5 -10 1 -5 -10 4 -12 3 -15 -5 -10 -8 5 -10 1
-5 -10 4 -12 3 -15 -5 -10 -8 5 -10 1 -5 -10 5 -13 3 -15 -7 -9 -9 5 -11 4 -6
-4 9 -15 -325 -672 -338 -664 -5 3 -6 1 -2 -5 4 -7 -116 -257 -271 -564 -153
-304 -277 -556 -275 -560 1 -5 -3 -8 -9 -8 -5 0 -7 -4 -4 -10 3 -6 1 -10 -5
-10 -6 0 -8 -4 -5 -10 3 -5 1 -10 -5 -10 -6 0 -8 -4 -5 -10 3 -5 1 -10 -5 -10
-6 0 -8 -4 -5 -10 3 -5 1 -10 -5 -10 -6 0 -8 -4 -5 -10 3 -5 1 -10 -5 -10 -6
0 -8 -5 -5 -10 3 -6 1 -10 -5 -10 -6 0 -8 -4 -5 -10 3 -5 1 -10 -5 -10 -6 0
-8 -4 -5 -10 3 -5 1 -10 -5 -10 -6 0 -8 -4 -5 -10 3 -5 1 -10 -5 -10 -6 0 -8
-4 -5 -10 3 -5 1 -10 -5 -10 -6 0 -8 -4 -5 -10 3 -5 1 -10 -5 -10 -6 0 -8 -4
-5 -10 3 -5 1 -10 -5 -10 -6 0 -8 -4 -5 -10 3 -5 1 -10 -5 -10 -6 0 -8 -4 -5
-10 3 -6 1 -10 -5 -10 -6 0 -8 -4 -5 -10 3 -5 1 -10 -6 -10 -7 0 -9 -3 -6 -7
10 -9 -395 -803 -407 -796 -5 3 -6 1 -2 -5 8 -14 -1303 -2644 -1315 -2637 -5
4 -6 -2 -2 -11 4 -12 3 -15 -5 -10 -8 5 -10 1 -5 -10 4 -12 3 -15 -5 -10 -8 5
-10 1 -5 -10 4 -12 3 -15 -5 -10 -8 5 -10 1 -5 -10 4 -12 3 -15 -5 -10 -8 5
-10 1 -5 -10 5 -13 3 -15 -7 -9 -8 5 -11 4 -6 -3 3 -6 -203 -430 -459 -943
-257 -512 -464 -933 -462 -935 2 -2 1194 789 2650 1758 1455 970 2847 1897
3094 2061 l449 297 399 -266 c219 -147 408 -272 419 -278 61 -32 3226 -2148
3226 -2157 0 -6 5 -7 10 -4 6 3 13 -1 16 -9 3 -9 10 -13 15 -10 5 3 12 -2 15
-10 3 -9 10 -14 14 -11 5 3 13 -3 19 -12 6 -10 11 -15 11 -11 0 4 460 -298
1022 -672 562 -373 1024 -677 1027 -675 2 3 -146 305 -330 672 -184 367 -333
673 -333 680 1 7 -1 11 -5 9 -11 -7 -202 384 -195 396 5 7 2 8 -6 3 -10 -6
-12 -4 -7 9 5 11 3 15 -5 10 -8 -5 -9 -2 -5 10 5 11 3 15 -5 10 -8 -5 -9 -2
-5 10 5 11 3 15 -5 10 -8 -5 -9 -2 -5 10 5 11 3 15 -5 10 -8 -5 -9 -2 -5 10 5
11 3 15 -5 10 -8 -5 -9 -2 -5 10 5 11 3 15 -5 10 -8 -5 -9 -2 -5 10 5 11 3 15
-5 10 -8 -5 -9 -2 -5 10 5 11 3 15 -5 10 -8 -5 -9 -2 -5 10 5 11 3 15 -5 10
-8 -5 -9 -2 -5 10 4 9 3 15 -1 12 -11 -7 -1084 2143 -1076 2156 5 7 2 8 -6 3
-10 -6 -12 -4 -7 9 5 11 3 15 -5 10 -8 -5 -9 -2 -5 10 4 9 3 15 -1 12 -11 -7
-184 343 -176 356 5 7 2 8 -6 3 -10 -6 -12 -4 -7 9 5 11 3 15 -5 10 -8 -5 -9
-2 -5 10 5 11 3 15 -5 10 -8 -5 -9 -2 -5 10 5 11 3 15 -5 10 -8 -5 -9 -2 -5
10 5 11 3 15 -5 10 -8 -5 -9 -2 -5 10 4 9 3 15 -1 12 -9 -5 -1388 2742 -1386
2761 1 7 -3 10 -9 6 -6 -4 -8 0 -4 11 5 11 3 15 -5 10 -8 -5 -9 -2 -5 10 5 11
3 15 -5 10 -8 -5 -9 -2 -5 10 5 11 3 15 -5 10 -8 -5 -9 -2 -5 10 5 11 3 15 -5
10 -8 -5 -9 -2 -5 10 5 11 3 15 -5 10 -8 -5 -9 -2 -5 10 5 11 3 15 -5 10 -8
-5 -9 -2 -5 10 5 11 3 15 -5 10 -8 -5 -9 -2 -5 10 5 11 3 15 -5 10 -8 -5 -9
-2 -5 10 5 11 3 15 -5 10 -8 -5 -9 -2 -5 10 5 11 3 15 -5 10 -8 -5 -9 -2 -5
10 5 11 3 15 -5 10 -8 -5 -9 -2 -5 10 5 11 3 15 -5 10 -8 -5 -9 -2 -5 10 5 11
3 15 -5 10 -8 -5 -9 -2 -5 10 5 11 3 15 -5 10 -8 -5 -9 -2 -5 10 5 11 3 15 -5
10 -8 -5 -9 -2 -5 10 5 11 3 15 -5 10 -8 -5 -9 -2 -5 10 4 9 3 15 -2 12 -8 -6
-48 72 -44 86 2 5 -2 8 -8 8 -5 0 -7 5 -4 10 3 6 1 10 -5 10 -6 0 -8 5 -5 10
3 6 1 10 -5 10 -6 0 -8 5 -5 10 3 6 1 10 -5 10 -6 0 -8 5 -5 10 3 6 1 10 -5
10 -6 0 -8 5 -5 10 3 6 1 10 -5 10 -6 0 -8 5 -5 10 3 6 1 10 -5 10 -6 0 -8 5
-5 10 3 6 1 10 -5 10 -6 0 -8 5 -5 10 3 6 1 10 -5 10 -6 0 -8 5 -5 10 3 6 1
10 -5 10 -6 0 -8 5 -5 10 3 6 1 10 -5 10 -6 0 -8 5 -5 10 3 6 1 10 -5 10 -6 0
-8 5 -5 10 3 6 1 10 -5 10 -6 0 -8 5 -5 10 3 6 1 10 -5 10 -6 0 -8 5 -5 10 3
6 1 10 -5 10 -6 0 -8 5 -5 10 3 6 1 10 -5 10 -6 0 -8 5 -5 10 3 6 1 10 -5 10
-6 0 -8 5 -5 10 3 6 1 10 -5 10 -6 0 -8 5 -5 10 3 6 1 10 -5 10 -6 0 -8 5 -5
10 3 6 1 10 -5 10 -6 0 -8 5 -5 10 3 6 1 10 -5 10 -6 0 -8 5 -5 10 3 6 1 10
-5 10 -6 0 -8 5 -5 10 3 6 1 10 -5 10 -6 0 -8 5 -5 10 3 6 1 10 -5 10 -6 0 -8
5 -5 10 3 6 1 10 -5 10 -6 0 -8 5 -5 10 3 6 1 10 -5 10 -6 0 -8 5 -5 10 3 6 1
10 -5 10 -6 0 -8 5 -5 10 3 6 1 10 -5 10 -6 0 -8 5 -5 10 3 6 1 10 -5 10 -6 0
-8 5 -5 10 3 6 1 10 -4 10 -6 0 -10 3 -9 8 2 4 -136 282 -304 618 -169 336
-305 614 -301 618 3 3 1 6 -6 6 -7 0 -9 5 -6 10 3 6 1 10 -5 10 -6 0 -9 4 -6
9 4 5 2 11 -2 13 -16 6 -133 238 -126 249 5 8 3 9 -6 4 -10 -6 -12 -4 -7 9 5
11 3 15 -5 10 -8 -5 -9 -2 -5 10 5 11 3 15 -5 10 -8 -5 -9 -2 -5 10 5 11 3 15
-5 10 -8 -5 -9 -2 -5 10 5 11 3 15 -5 10 -8 -5 -9 -2 -5 10 5 11 3 15 -5 10
-8 -5 -9 -2 -5 10 5 11 3 15 -5 10 -8 -5 -9 -2 -5 10 5 11 3 15 -5 10 -8 -5
-9 -2 -5 10 4 9 3 15 -2 12 -4 -3 -232 446 -505 997 -274 551 -530 1064 -570
1139 l-72 137 -559 -1119z"/>
</g>
</svg>
